<svg width="34" height="54" viewBox="0 0 34 54" fill="none" xmlns="http://www.w3.org/2000/svg">
<path d="M22.0805 1.44642C17.7845 5.52712 3.07681 20.4337 1.82363 21.6993C1.80217 21.7595 1.83221 21.8198 1.92663 21.9274C2.08113 22.0996 2.43305 22.4396 2.9266 22.9347C4.72053 24.7383 8.46719 28.4918 10.5015 30.5279C10.686 30.7173 10.862 30.8851 11.0336 31.0616C11.5658 31.5911 11.5572 31.6255 11.7976 31.3802C13.6258 29.5464 30.0802 13.0471 31.7111 11.4114C31.8656 11.2479 31.8656 11.2091 31.6681 10.9982C29.1232 8.46712 24.6855 3.91292 22.0976 1.44642H22.0805Z" stroke="white" stroke-width="2.89284" stroke-miterlimit="10"/>
<path d="M21.7145 21.5271C17.4142 25.6078 2.70655 40.5144 1.45337 41.7842C1.43191 41.8445 1.46195 41.9048 1.55637 42.0124C1.71087 42.1846 2.06279 42.5246 2.55634 43.0197C4.35027 44.8233 8.09693 48.5768 10.1312 50.6129C10.3157 50.8023 10.4917 50.9701 10.6634 51.1466C11.1955 51.6761 11.187 51.7105 11.4273 51.4651C13.2556 49.6314 29.71 33.1321 31.3408 31.4964C31.4953 31.3328 31.4953 31.2941 31.2979 31.0832C28.7529 28.5521 24.3153 23.9979 21.7274 21.5314H21.7145V21.5271Z" stroke="white" stroke-width="2.89284" stroke-miterlimit="10"/>
</svg>
